<svg width="889" height="525" viewBox="0 0 889 525" fill="none" xmlns="http://www.w3.org/2000/svg">
<path d="M5.57031 3.11621V521.586" stroke="#B2B535"/>
<path d="M94.7051 4.17432V522.644" stroke="#B2B535"/>
<path d="M182.725 4.17432V522.644" stroke="#B2B535"/>
<path d="M271.859 4.17432V523.703" stroke="#B2B535"/>
<path d="M359.879 1V520.528" stroke="#B2B535"/>
<path d="M449.014 2.05811V520.528" stroke="#B2B535"/>
<path d="M537.033 2.05811V520.528" stroke="#B2B535"/>
<path d="M626.168 3.11621V521.586" stroke="#B2B535"/>
<path d="M626.168 2.05811V521.586" stroke="#B2B535"/>
<path d="M715.303 3.11621V521.586" stroke="#B2B535"/>
<path d="M803.322 3.11621V521.586" stroke="#B2B535"/>
<path d="M888 4.17432V522.644" stroke="#B2B535"/>
<path d="M886.887 1L0.000892639 0.999967" stroke="#B2B535"/>
<path d="M885.771 76.1252L-0.000156403 76.1252" stroke="#B2B535"/>
<path d="M885.771 150.192L-0.000156403 150.192" stroke="#B2B535"/>
<path d="M886.887 225.318L0.000892639 225.318" stroke="#B2B535"/>
<path d="M886.887 299.385L0.000892639 299.385" stroke="#B2B535"/>
<path d="M885.771 374.51L-0.000156403 374.51" stroke="#B2B535"/>
<path d="M885.771 448.577L-0.000156403 448.577" stroke="#B2B535"/>
<path d="M886.887 523.703L0.000892639 523.703" stroke="#B2B535"/>
</svg>
