<svg xmlns="http://www.w3.org/2000/svg" fill="none" viewBox="0 0 146 57" height="57" width="146">
<path fill="#A752EE" d="M26.4879 44.1538C26.2536 44.2414 26.0281 44.3202 25.7852 44.399C26.0194 44.3202 26.2536 44.2414 26.4879 44.1538Z"></path>
<path fill="#052C49" d="M43.0641 0.5H8.46196C3.78855 0.5 0 4.3235 0 9.04001V47.96C0 52.6765 3.78855 56.5 8.46196 56.5H43.0641C47.7376 56.5 51.5261 52.6765 51.5261 47.96V9.04001C51.5261 4.3235 47.7376 0.5 43.0641 0.5Z"></path>
<path fill="#E6DED4" d="M34.6801 31.4311C35.0702 36.8911 32.1484 41.2486 28.0041 43.4624C24.1633 45.5099 19.282 45.7024 15.0337 43.2174C6.23362 38.0549 6.62378 25.0524 16.4469 20.7824C19.9843 19.2424 23.3656 19.4261 26.825 20.9574C27.0071 21.0361 27.2151 20.9136 27.2065 20.7211L27.1718 14.4824C27.1718 13.8786 27.5793 13.3449 28.1775 13.1874L32.6773 12.0149C33.5356 11.7961 34.3766 12.4174 34.3853 13.2749L34.6714 31.4311H34.6801ZM27.6226 29.8036C26.1574 26.5749 22.3599 25.2186 19.1173 26.6274C16.3082 27.8436 14.2534 31.3436 15.8747 34.9049C17.1319 37.6786 20.6259 39.7174 24.3367 38.0986C27.4319 36.7511 29.2006 33.2861 27.6226 29.7949V29.8036Z"></path>
<path fill="#7A4ECE" d="M42.5965 42.509L34.646 29.209L34.6807 31.4315C34.9408 35.0102 33.7617 38.1077 31.7676 40.444C32.6346 39.9277 33.8311 40.1552 34.4119 41.0652L36.224 43.9265C36.4754 44.3202 36.9176 44.5652 37.3944 44.5565L41.4434 44.5127C42.4838 44.504 43.1253 43.3927 42.6051 42.5177L42.5965 42.509Z"></path>
<path fill="#052C49" d="M68.735 42.6224C66.7149 42.6224 64.9202 42.1587 63.3249 41.2224C61.7383 40.2949 60.4812 39.0349 59.5621 37.4424C58.6431 35.8499 58.1836 34.0912 58.1836 32.1487C58.1836 30.2062 58.6518 28.4212 59.5795 26.8374C60.5158 25.2537 61.773 24.0024 63.3596 23.0749C64.9462 22.1474 66.7236 21.6749 68.6917 21.6749C70.2003 21.6749 71.5441 21.9462 72.7146 22.4974C73.7983 23.0049 74.6654 23.7049 75.333 24.6062C75.4283 24.7374 75.4283 24.9212 75.3243 25.0524C75.0989 25.3412 74.6307 25.1837 74.6307 24.8249V15.9349C74.6307 15.0687 75.3503 14.3687 76.2433 14.3687H78.6883C79.5813 14.3687 80.3009 15.0687 80.3009 15.9349V40.6099C80.3009 41.4762 79.5813 42.1762 78.6883 42.1762H76.6248C75.7318 42.1762 75.0122 41.4762 75.0122 40.6099V38.5012L75.4457 39.4374C75.5064 39.5599 75.489 39.7087 75.4023 39.8224C74.7087 40.7149 73.7984 41.3974 72.6626 41.8612C71.4488 42.3599 70.1396 42.6137 68.7264 42.6137L68.735 42.6224ZM69.4113 37.6612C70.443 37.6612 71.3534 37.4249 72.1337 36.9612C72.914 36.4974 73.5296 35.8499 73.9717 35.0099C74.4139 34.1787 74.6307 33.2249 74.6307 32.1399C74.6307 31.0549 74.4139 30.1099 73.9717 29.2699C73.5296 28.4387 72.9227 27.7912 72.1337 27.3187C71.3534 26.8549 70.443 26.6187 69.4113 26.6187C68.3796 26.6187 67.4519 26.8549 66.6282 27.3362C65.8046 27.8174 65.1716 28.4649 64.7208 29.2874C64.27 30.1099 64.0445 31.0549 64.0445 32.1312C64.0445 33.2074 64.27 34.1612 64.7208 35.0012C65.1716 35.8324 65.8132 36.4799 66.6282 36.9524C67.4432 37.4162 68.3709 37.6524 69.4113 37.6524V37.6612Z"></path>
<path fill="#052C49" d="M89.6831 42.6228C88.1918 42.6228 86.9087 42.3866 85.8249 41.9228C84.7412 41.4591 83.9088 40.794 83.3279 39.919C82.747 39.0528 82.4609 38.0115 82.4609 36.8128C82.4609 35.684 82.7297 34.6865 83.2586 33.8203C83.7875 32.954 84.6024 32.219 85.6949 31.6328C86.7873 31.0465 88.1572 30.6266 89.7958 30.3816L95.6568 29.4628C95.8995 29.4278 96.1163 29.6028 96.1163 29.839V33.1115C96.1163 33.2953 95.9775 33.4528 95.7868 33.4878L90.8189 34.354C90.0125 34.5028 89.397 34.7565 88.9635 35.1065C88.5386 35.4653 88.3219 35.9728 88.3219 36.629C88.3219 37.2415 88.5646 37.7228 89.0415 38.0641C89.5184 38.4053 90.1166 38.5803 90.8189 38.5803C91.7552 38.5803 92.5702 38.3878 93.2812 37.994C93.9834 37.6003 94.5383 37.0665 94.9285 36.3928C95.3186 35.719 95.518 34.9753 95.518 34.1703V28.9553C95.518 28.194 95.2059 27.5553 94.5903 27.0478C93.9748 26.5316 93.1338 26.2778 92.076 26.2778C91.0183 26.2778 90.1773 26.549 89.4143 27.0828C89.0155 27.3628 88.6774 27.6866 88.3826 28.0541C87.9057 28.6666 87.0821 28.9116 86.3625 28.5791L84.6545 27.7915C83.7701 27.389 83.458 26.3128 83.9869 25.5253C84.3077 25.0528 84.6805 24.6153 85.114 24.2128C85.9983 23.4078 87.0561 22.7778 88.2872 22.3403C89.5184 21.9028 90.8709 21.6753 92.3361 21.6753C94.0788 21.6753 95.6134 21.9815 96.9486 22.594C98.2838 23.2065 99.3242 24.0553 100.07 25.149C100.815 26.2428 101.188 27.5028 101.188 28.9553V40.6103C101.188 41.4766 100.469 42.1765 99.5756 42.1765H97.5121C96.6191 42.1765 95.8995 41.4766 95.8995 40.6103V39.2628C95.8995 39.079 96.0382 38.9215 96.2203 38.8953C96.5844 38.834 96.8272 39.2366 96.5931 39.5166C96.1509 40.0591 95.6828 40.5228 95.1799 40.9165C94.4516 41.494 93.628 41.9228 92.7176 42.2028C91.8073 42.4828 90.8015 42.6228 89.6918 42.6228H89.6831Z"></path>
<path fill="#052C49" d="M104.162 40.6187V15.9437C104.162 15.0774 104.882 14.3774 105.775 14.3774H108.22C109.113 14.3774 109.832 15.0774 109.832 15.9437V40.6187C109.832 41.4849 109.113 42.1849 108.22 42.1849H105.775C104.882 42.1849 104.162 41.4849 104.162 40.6187Z"></path>
<path fill="#052C49" d="M119.214 42.6228C117.723 42.6228 116.44 42.3866 115.356 41.9228C114.272 41.4591 113.44 40.794 112.859 39.919C112.278 39.0528 111.992 38.0115 111.992 36.8128C111.992 35.684 112.261 34.6865 112.79 33.8203C113.319 32.954 114.134 32.219 115.226 31.6328C116.319 31.0465 117.688 30.6266 119.327 30.3816L125.188 29.4628C125.431 29.4278 125.648 29.6028 125.648 29.839V33.1115C125.648 33.2953 125.509 33.4528 125.318 33.4878L120.35 34.354C119.544 34.5028 118.928 34.7565 118.495 35.1065C118.07 35.4653 117.853 35.9728 117.853 36.629C117.853 37.2415 118.096 37.7228 118.573 38.0641C119.05 38.4053 119.648 38.5803 120.35 38.5803C121.286 38.5803 122.101 38.3878 122.812 37.994C123.515 37.6003 124.07 37.0665 124.46 36.3928C124.85 35.719 125.049 34.9753 125.049 34.1703V28.9553C125.049 28.194 124.737 27.5553 124.122 27.0478C123.506 26.5316 122.665 26.2778 121.607 26.2778C120.55 26.2778 119.709 26.549 118.946 27.0828C118.547 27.3628 118.209 27.6866 117.914 28.0541C117.437 28.6666 116.613 28.9116 115.894 28.5791L114.186 27.7915C113.301 27.389 112.989 26.3128 113.518 25.5253C113.839 25.0528 114.212 24.6153 114.645 24.2128C115.53 23.4078 116.587 22.7778 117.818 22.3403C119.05 21.9028 120.402 21.6753 121.867 21.6753C123.61 21.6753 125.145 21.9815 126.48 22.594C127.815 23.2065 128.855 24.0553 129.601 25.149C130.347 26.2428 130.719 27.5028 130.719 28.9553V40.6103C130.719 41.4766 130 42.1765 129.107 42.1765H127.043C126.15 42.1765 125.431 41.4766 125.431 40.6103V39.2628C125.431 39.079 125.569 38.9215 125.752 38.8953C126.116 38.834 126.358 39.2366 126.124 39.5166C125.682 40.0591 125.214 40.5228 124.711 40.9165C123.983 41.494 123.159 41.9228 122.249 42.2028C121.338 42.4828 120.333 42.6228 119.223 42.6228H119.214Z"></path>
<path fill="#052C49" d="M143.264 42.4037C140.767 42.4037 138.834 41.7475 137.464 40.435C136.085 39.1225 135.401 37.2937 135.401 34.94V27.5199C135.401 27.1699 135.114 26.8899 134.75 26.8899H133.536C132.643 26.8899 131.924 26.19 131.924 25.3237V22.1125H132.115C133.172 22.1125 133.987 21.8587 134.551 21.3424C135.114 20.8262 135.401 20.0562 135.401 19.0237C135.401 18.21 136.077 17.5537 136.909 17.5537H139.449C140.342 17.5537 141.062 18.2537 141.062 19.1199V21.4737C141.062 21.8237 141.348 22.1037 141.712 22.1037H144.287C145.18 22.1037 145.9 22.8037 145.9 23.67V25.3062C145.9 26.1724 145.18 26.8725 144.287 26.8725H141.712C141.357 26.8725 141.062 27.1525 141.062 27.5025V34.555C141.062 35.2375 141.192 35.815 141.444 36.2612C141.695 36.7162 142.085 37.0487 142.614 37.2675C143.143 37.4862 143.802 37.6 144.582 37.6C144.756 37.6 144.964 37.5912 145.189 37.565C145.571 37.5212 145.909 37.8187 145.909 38.195V40.925C145.909 41.6337 145.362 42.2287 144.634 42.3074C144.634 42.3074 144.625 42.3074 144.617 42.3074C144.14 42.3599 143.68 42.3775 143.256 42.3775L143.264 42.4037Z"></path>
</svg>
